<svg width="133" height="266" viewBox="0 0 133 266" fill="none" xmlns="http://www.w3.org/2000/svg">
<g id="Group 98">
<path id="Vector" fill-rule="evenodd" clip-rule="evenodd" d="M-76.3801 81.3255C-68.0993 63.3035 -50.591 48.5328 -31.0652 45.0531C-12.573 41.7576 0.653529 69.2977 18.8872 73.8095C36.8876 78.2637 61.2729 57.9569 74.3228 71.1311C87.3115 84.2435 67.4317 109.588 68.5562 128.011C69.6534 145.986 90.6951 162.421 80.8144 177.478C70.9619 192.491 48.8791 190.797 32.5 198.159C15.4006 205.845 1.56497 222.644 -17.1483 221.511C-36.9185 220.315 -56.1502 208.625 -67.1158 192.131C-77.6078 176.35 -71.7427 155.903 -73.3217 137.018C-74.9096 118.026 -84.3374 98.6433 -76.3801 81.3255Z" fill="url(#paint0_linear_616_959)"/>
<g id="Ellipse 1">
<circle cx="22.6067" cy="61.1045" r="8.5" transform="rotate(117.203 22.6067 61.1045)" fill="#D9D9D9"/>
<circle cx="22.6067" cy="61.1045" r="8.5" transform="rotate(117.203 22.6067 61.1045)" fill="url(#paint1_linear_616_959)"/>
</g>
<g id="Ellipse 2">
<circle cx="77.3256" cy="127.459" r="4.5" transform="rotate(117.203 77.3256 127.459)" fill="#D9D9D9"/>
<circle cx="77.3256" cy="127.459" r="4.5" transform="rotate(117.203 77.3256 127.459)" fill="url(#paint2_linear_616_959)"/>
</g>
</g>
<defs>
<linearGradient id="paint0_linear_616_959" x1="-78.8007" y1="84.4535" x2="78.7744" y2="180.839" gradientUnits="userSpaceOnUse">
<stop stop-color="#DF8CA1"/>
<stop offset="1" stop-color="#ECADBD"/>
</linearGradient>
<linearGradient id="paint1_linear_616_959" x1="22.6067" y1="52.6045" x2="22.6067" y2="69.6045" gradientUnits="userSpaceOnUse">
<stop stop-color="#DF8CA1"/>
<stop offset="1" stop-color="#ECADBD"/>
</linearGradient>
<linearGradient id="paint2_linear_616_959" x1="77.3256" y1="122.959" x2="77.3256" y2="131.959" gradientUnits="userSpaceOnUse">
<stop stop-color="#DF8CA1"/>
<stop offset="1" stop-color="#ECADBD"/>
</linearGradient>
</defs>
</svg>
