<svg width="50" height="50" viewBox="0 0 50 50" fill="none" xmlns="http://www.w3.org/2000/svg">
<g id="Group 33">
<path id="Star 1" d="M23.3209 2.59464C24.109 1.37676 25.891 1.37676 26.6791 2.59464L29.525 6.99237C30.0394 7.78717 31.0405 8.11247 31.9238 7.77178L36.8111 5.88674C38.1646 5.36471 39.6062 6.41208 39.528 7.86062L39.2454 13.0913C39.1944 14.0366 39.8131 14.8882 40.728 15.1318L45.7899 16.4795C47.1917 16.8527 47.7424 18.5474 46.8276 19.6733L43.5246 23.7389C42.9276 24.4737 42.9276 25.5263 43.5246 26.2611L46.8276 30.3267C47.7424 31.4526 47.1917 33.1473 45.7899 33.5205L40.728 34.8682C39.8131 35.1118 39.1944 35.9634 39.2454 36.9087L39.528 42.1394C39.6062 43.5879 38.1646 44.6353 36.8111 44.1133L31.9238 42.2282C31.0405 41.8875 30.0394 42.2128 29.525 43.0076L26.6791 47.4054C25.891 48.6232 24.109 48.6232 23.3209 47.4054L20.475 43.0076C19.9606 42.2128 18.9595 41.8875 18.0762 42.2282L13.1889 44.1133C11.8354 44.6353 10.3938 43.5879 10.4721 42.1394L10.7546 36.9087C10.8056 35.9634 10.1869 35.1118 9.27203 34.8682L4.2101 33.5205C2.80828 33.1473 2.25764 31.4526 3.17237 30.3267L6.47542 26.2611C7.07238 25.5263 7.07238 24.4737 6.47542 23.7389L3.17237 19.6733C2.25764 18.5474 2.80828 16.8527 4.2101 16.4795L9.27203 15.1318C10.1869 14.8882 10.8056 14.0366 10.7546 13.0913L10.4721 7.86062C10.3938 6.41208 11.8354 5.36471 13.1889 5.88674L18.0762 7.77178C18.9595 8.11247 19.9606 7.78717 20.475 6.99237L23.3209 2.59464Z" fill="#429DC4"/>
<path id="Vector 4" d="M16.5 25.5L21.7418 30.7418C22.1517 31.1517 22.8232 31.1283 23.2036 30.6909L32.5 20" stroke="white" stroke-width="3" stroke-linecap="round"/>
</g>
</svg>
