<svg width="148" height="199" viewBox="0 0 148 199" fill="none" xmlns="http://www.w3.org/2000/svg">
<g id="Group 9">
<path id="Vector" fill-rule="evenodd" clip-rule="evenodd" d="M-44.0568 -16.4855C-29.7617 -30.2337 -8.06597 -37.5829 11.3806 -33.685C29.7979 -29.9933 32.043 0.475586 47.3659 11.3398C62.4928 22.0652 92.6132 12.0765 99.9447 29.109C107.242 46.0617 79.4739 62.3866 73.7871 79.9451C68.2381 97.0781 81.8167 120.067 67.1163 130.47C52.4579 140.844 32.5225 131.195 14.5858 132.061C-4.13988 132.965 -23.1582 143.544 -40.1627 135.65C-58.1278 127.311 -71.756 109.4 -75.9341 90.0394C-79.9318 71.5149 -66.9991 54.6268 -61.5661 36.4713C-56.1023 18.2128 -57.7933 -3.27437 -44.0568 -16.4855Z" fill="url(#paint0_linear_616_785)"/>
<g id="Ellipse 1">
<circle cx="55.4717" cy="0.873598" r="8.5" transform="rotate(138.642 55.4717 0.873598)" fill="#D9D9D9"/>
<circle cx="55.4717" cy="0.873598" r="8.5" transform="rotate(138.642 55.4717 0.873598)" fill="url(#paint1_linear_616_785)"/>
</g>
<g id="Ellipse 2">
<circle cx="82.1513" cy="82.6363" r="4.5" transform="rotate(138.642 82.1513 82.6363)" fill="#D9D9D9"/>
<circle cx="82.1513" cy="82.6363" r="4.5" transform="rotate(138.642 82.1513 82.6363)" fill="url(#paint2_linear_616_785)"/>
</g>
</g>
<defs>
<linearGradient id="paint0_linear_616_785" x1="-47.4532" y1="-14.4587" x2="63.9891" y2="132.853" gradientUnits="userSpaceOnUse">
<stop stop-color="#DF8CA1"/>
<stop offset="1" stop-color="#ECADBD"/>
</linearGradient>
<linearGradient id="paint1_linear_616_785" x1="55.4717" y1="-7.6264" x2="55.4717" y2="9.3736" gradientUnits="userSpaceOnUse">
<stop stop-color="#DF8CA1"/>
<stop offset="1" stop-color="#ECADBD"/>
</linearGradient>
<linearGradient id="paint2_linear_616_785" x1="82.1513" y1="78.1363" x2="82.1513" y2="87.1363" gradientUnits="userSpaceOnUse">
<stop stop-color="#DF8CA1"/>
<stop offset="1" stop-color="#ECADBD"/>
</linearGradient>
</defs>
</svg>
